<svg width="337" height="377" viewBox="0 0 337 377" fill="none" xmlns="http://www.w3.org/2000/svg">
<path d="M219.002 371.716C215.091 374.619 211.459 377 210.936 377C210.414 377 209.612 374.947 209.151 372.445C206.746 359.532 191.501 341.104 174.494 330.585C163.209 323.612 148.171 317.405 133.691 313.724C121.167 310.554 121.507 310.894 114.134 293.802C101.974 265.559 100.966 231.049 111.437 201.336C115.02 191.181 123.013 174.32 121.738 179.604C114.753 208.637 116.527 235.045 126.973 257.348C135.136 274.743 143.093 285.032 166.513 308.428C194.076 335.978 198.583 340.849 203.721 348.757C208.556 356.216 210.864 356.689 215.808 351.284C221.93 344.566 222.221 326.455 216.451 309.873C211.313 295.066 203.539 284.473 182.39 263.421C158.642 239.795 151.718 231.79 146.154 221.513C139.643 209.499 137.554 200.959 137.639 186.893C137.772 167.627 144.393 150.875 156.771 138.485C168.821 126.435 193.068 115.927 211.204 114.895C230.712 113.777 244.233 118.357 255.275 129.86C263.255 138.169 266.329 143.951 277.395 171.502C278.027 173.081 278.622 174.575 279.205 176.009C289.445 201.518 290.478 204.106 289.615 205.272C289.47 205.466 289.263 205.624 289.044 205.843C287.988 206.899 286.372 206.207 282.388 202.964C270.908 193.586 260.486 189.954 235.073 186.431C221.93 184.609 212.917 180.904 206.357 174.612C203.296 171.684 200.162 169.279 199.396 169.279C194.319 169.279 187.31 183.977 187.455 194.29C187.662 207.628 192.983 216.387 215.759 240.888C237.066 263.798 244.889 275.302 250.513 291.968C253.647 301.261 253.695 321.608 250.61 330.84C245.848 345.064 233.64 360.856 219.002 371.716ZM336.055 336.209C336.055 336.598 322.741 336.913 306.464 336.913H276.873L272.524 326.284C264.154 305.889 251.217 274.111 237.296 239.734C229.583 220.699 222.404 203.061 221.335 200.559L219.403 196.003H232.122C255.177 196.003 266.183 200.06 279.691 213.52C289.822 223.626 291.352 226.566 309.914 271.925C317.02 289.296 325.815 310.699 329.447 319.506C333.079 328.301 336.055 335.82 336.055 336.209ZM227.481 94.9244C220.083 101.739 218.468 101.399 223.691 94.1348C230.154 85.1214 231.769 79.3514 232.498 62.5879C233.655 42.9189 233.752 42.4816 236.243 43.1497C237.652 43.5263 240.105 43.8421 241.709 43.8542C244.564 43.8664 244.588 44 243.236 57.2188C241.451 74.6868 236.446 86.652 227.481 94.9244ZM250.343 97.366C237.576 103.768 227.639 104.023 239.689 97.6333C246.856 93.8311 255.42 85.17 261.992 75.0755C264.798 70.7631 269.628 63.3573 270.054 63.3816C271.414 63.4545 280.182 67.1048 277.5 70.5C277.5 73.4154 257.34 93.8433 250.343 97.366ZM268.637 110.254C257.813 112.66 250.331 112.611 244.949 110.109L240.698 108.117L249.201 107.23C254.096 106.72 262.344 104.545 268.637 102.104C274.65 99.7834 284.878 96.2242 287.052 95.7626L291 94.9244V105.736L285.837 106.404C282.995 106.78 273.314 109.21 268.637 110.254ZM242.921 161.869C248.739 163.557 252.238 163.424 252.238 161.517C252.238 157.083 234.466 141.692 232.097 144.073C230.567 145.591 232.911 153.439 235.984 157.083C237.685 159.111 240.807 161.262 242.921 161.869Z" fill="#0C3BA1"/>
<path d="M97.3457 310.189C78.1164 310.189 48.7439 316.336 20.8291 326.187C11.4755 329.491 2.82655 332.516 1.61181 332.893C-0.501845 333.561 -0.513973 333.391 1.44176 328.872C9.26471 310.748 12.2044 303.775 19.4564 286.198C21.0477 282.359 30.6928 259.267 40.8966 234.875C51.1005 210.483 64.4505 178.511 70.5728 163.812C76.6951 149.114 94.7583 105.796 110.708 67.5441L138.882 0L193.293 0C216.674 55.8808 217.316 57.7138 217.921 69.4026C218.492 80.1653 218.346 81.0399 214.714 88.4134C212.625 92.6528 208.665 98.1677 205.907 100.658C200.38 105.651 188.658 111.542 186.156 110.582C185.281 110.242 181.187 101.581 177.069 91.3409C172.951 81.0885 169.089 71.9171 168.481 70.9575C167.194 68.9046 167.048 69.2083 156.261 95.7869C138.307 139.979 139.048 138.461 131.055 147.717C103.857 179.191 90.5675 215.318 92.2924 253.096C93.0213 269.094 95.2321 280.598 100.455 295.491C102.46 301.236 104.428 306.897 104.829 308.063C105.46 309.946 104.61 310.189 97.3457 310.189Z" fill="#0C3BA1"/>
<path d="M160.172 135.388C158.957 136.408 157.816 137.44 156.771 138.485C144.393 150.875 137.772 167.627 137.639 186.893C137.554 200.959 139.643 209.499 146.154 221.513C151.718 231.79 158.642 239.795 182.39 263.421C203.539 284.473 211.313 295.066 216.451 309.873C222.221 326.454 221.93 344.566 215.807 351.284C210.863 356.689 208.555 356.216 203.721 348.757C198.582 340.849 194.076 335.978 166.513 308.428C143.093 285.032 135.136 274.743 126.973 257.348C116.526 235.045 114.753 208.637 121.738 179.604C123.013 174.32 115.02 191.181 111.437 201.336C105.545 218.051 103.286 236.296 104.61 254.08C103.371 237.888 105.059 221.379 109.76 206.401C117.51 181.754 128.115 163.509 143.069 149.138C147.332 145.057 153.625 140.052 160.172 135.388ZM223.582 115.028C219.731 114.676 215.613 114.64 211.204 114.895C199.955 115.539 186.374 119.814 174.798 125.852C177.689 124.163 180.313 122.778 182.451 121.855C195.91 116.037 210.56 113.741 223.582 115.028ZM268.102 149.393C265.515 143.806 263.401 139.991 261.105 136.76C262.563 138.716 263.863 140.684 264.883 142.567C265.551 143.794 266.681 146.211 268.102 149.393ZM248.958 124.248C245.277 121.491 241.305 119.365 236.932 117.822C239.07 118.551 241.123 119.401 243.066 120.373C244.913 121.309 246.917 122.633 248.958 124.248Z" fill="#30B8BE"/>
<circle cx="241" cy="28" r="18" fill="#E8AA1D"/>
<circle cx="244.5" cy="23.5" r="12.5" fill="#FCD317"/>
<circle cx="284" cy="54" r="18" transform="rotate(-6.96201 284 54)" fill="#E8AA1D"/>
<circle cx="286.929" cy="49.1089" r="12.5" transform="rotate(-6.96201 286.929 49.1089)" fill="#FCD317"/>
<circle cx="306.329" cy="97.9701" r="17.1731" transform="rotate(-6.96201 306.329 97.9701)" fill="#E8AA1D"/>
<circle cx="309.123" cy="93.3037" r="11.9258" transform="rotate(-6.96201 309.123 93.3037)" fill="#FCD317"/>
</svg>
